Coordinates
version=1
nRows=4
nColumns=107
inDegrees=yes

Units are S.I. units (second, meters, Newtons, ...)
If the header above contains a line with 'inDegrees', this indicates whether rotational values are in degrees (yes) or radians (no).

endheader
time	sternoclavicular_r2	sternoclavicular_r3	unrotscap_r3	unrotscap_r2	acromioclavicular_r2	acromioclavicular_r3	acromioclavicular_r1	unrothum_r1	unrothum_r3	unrothum_r2	elv_angle	shoulder_elv	shoulder1_r2	shoulder_rot	elbow_flexion	pro_sup	deviation	flexion	proximal_distal_r1	proximal_distal_r3	cmc_flexion	cmc_abduction	mp_flexion	ip_flexion	mcp2_flexion	mcp2_abduction	pm2_flexion	md2_flexion	mcp3_flexion	mcp3_abduction	pm3_flexion	md3_flexion	mcp4_flexion	mcp4_abduction	pm4_flexion	md4_flexion	mcp5_flexion	mcp5_abduction	pm5_flexion	md5_flexion	bicpt_tx	bicpt_ty	bicpt_tz	bicpt2_tx	bicpt2_ty	bicpt2_tz	ptpt_tx	ptpt_ty	ptpt_tz	FCUpt_tx	FCUpt_ty	FCUpt_tz	EDCpt_tx	EDCpt_ty	EDCpt_tz	APLpt_tx	APLpt_ty	APLpt_tz	FPLpt_tx	FPLpt_ty	FPLpt_tz	FPLpt2_tx	FPLpt2_ty	FPLpt2_tz	PEC1pt2_tx	PEC1pt2_ty	PEC1pt2_tz	PEC1pt3_tx	PEC1pt3_ty	PEC1pt3_tz	PEC2pt2_tx	PEC2pt2_ty	PEC2pt2_tz	PEC2pt3_tx	PEC2pt3_ty	PEC2pt3_tz	PEC3pt2_tx	PEC3pt2_ty	PEC3pt2_tz	PEC3pt3_tx	PEC3pt3_ty	PEC3pt3_tz	DELT2pt2a_tx	DELT2pt2a_ty	DELT2pt2a_tz	DELT2pt2_tx	DELT2pt2_ty	DELT2pt2_tz	LAT1pt2_tx	LAT1pt2_ty	LAT1pt2_tz	LAT1pt3_tx	LAT1pt3_ty	LAT1pt3_tz	LAT2pt2_tx	LAT2pt2_ty	LAT2pt2_tz	LAT2pt3_tx	LAT2pt3_ty	LAT2pt3_tz	LAT3pt2_tx	LAT3pt2_ty	LAT3pt2_tz	LAT3pt3_tx	LAT3pt3_ty	LAT3pt3_tz
      0.93333333	     -0.32364412	      0.13708037	     -0.13708037	      0.32364412	     -0.06553135	      0.52960133	      0.23805215	     -0.23805215	     -0.52960133	      0.06553135	     99.08663837	     76.62562199	     -1.72938808	    -22.32816240	     29.17930872	     38.52535554	      0.12641597	     -0.02929559	      0.15848378	     -0.01464780	     33.67216360	     -3.13744052	     -8.05695630	     -2.66025800	    -13.76105679	     11.97564448	     24.19648533	     -6.89882033	    -19.87904260	     -0.33552182	     10.80423410	     14.26915953	    -18.73010984	      0.28709065	     -0.31036819	     22.79455000	   -379.74350824	    -14.12483442	     -7.13158276	      5.01430766	      0.00086516	     -0.03094439	     -0.00483869	      0.01656916	     -0.01812670	     -0.00762593	      0.00470341	     -0.06674065	     -0.00315342	      0.00763211	     -0.18352543	     -0.00037513	     -0.00462303	      0.00132059	      0.00015642	      0.00002925	      0.00001170	      0.00005851	      0.00003745	      0.00011234	      0.00006319	     -0.00001217	     -0.00021191	     -0.00025429	      0.00251162	      0.00881195	      0.00613005	     -0.00821598	      0.01983754	     -0.01881586	      0.00251162	      0.00881195	      0.00613005	      0.00055341	      0.01839016	     -0.00966335	      0.00396526	      0.00490022	      0.01600983	      0.00000000	      0.00785297	      0.00000000	     -0.00719430	     -0.03324703	     -0.00647555	      0.01508348	     -0.00050450	     -0.00414843	     -0.00089397	      0.01498458	     -0.00613005	      0.00246905	      0.02162547	     -0.01787933	     -0.00600235	      0.01298380	     -0.00549151	     -0.01251553	      0.02741497	     -0.03069284	     -0.02349854	      0.01451631	     -0.00736458	     -0.01558056	      0.03167195	     -0.03835541
      0.96666667	     -0.32306322	      0.13683433	     -0.13683433	      0.32306322	     -0.06541373	      0.52865076	      0.23762488	     -0.23762488	     -0.52865076	      0.06541373	     99.20573909	     76.48808888	     -1.73146678	    -23.04682022	     29.23599707	     39.23239640	      0.12229053	     -0.02617225	      0.15372478	     -0.01308612	     33.61264171	     -3.37268567	     -7.63467902	     -3.82488129	    -13.94208908	     11.88035903	     24.43262422	     -7.26580798	    -19.80063460	     -0.52404869	     10.65158631	     14.48392114	    -18.69498629	      0.17488277	     -0.72814761	     23.46064352	   -379.58706504	    -14.14276188	     -6.94117745	      4.97315326	      0.00086704	     -0.03095089	     -0.00483974	      0.01657230	     -0.01814210	     -0.00755156	      0.00465117	     -0.06677443	     -0.00321038	      0.00770305	     -0.18351095	     -0.00038075	     -0.00470788	      0.00134911	      0.00015177	      0.00002620	      0.00001048	      0.00005241	      0.00003354	      0.00010063	      0.00005660	     -0.00001213	     -0.00021264	     -0.00025517	      0.00250711	      0.00879614	      0.00611905	     -0.00820123	      0.01980193	     -0.01878209	      0.00250711	      0.00879614	      0.00611905	      0.00055241	      0.01835716	     -0.00964601	      0.00396008	      0.00489142	      0.01599724	      0.00000000	      0.00782461	      0.00000000	     -0.00718139	     -0.03318736	     -0.00645200	      0.01547235	     -0.00052731	     -0.00442747	     -0.00089236	      0.01495768	     -0.00611905	      0.00246462	      0.02158666	     -0.01784724	     -0.00599157	      0.01296049	     -0.00548165	     -0.01249307	      0.02736576	     -0.03063775	     -0.02345637	      0.01449026	     -0.00735136	     -0.01555259	      0.03161510	     -0.03828657
      1.00000000	     -0.32290545	      0.13676751	     -0.13676751	      0.32290545	     -0.06538179	      0.52839259	      0.23750883	     -0.23750883	     -0.52839259	      0.06538179	     99.23861854	     76.45073551	     -1.73204064	    -23.22895183	     29.26632854	     39.54374423	      0.12665335	     -0.01737929	      0.15875670	     -0.00868965	     33.64902982	     -3.29148291	     -7.24193789	     -4.42383768	    -13.86045740	     11.95843242	     24.48489942	     -7.54238930	    -19.40701675	     -0.48647774	     10.57874548	     14.52838995	    -18.47811473	      0.23738648	     -0.91436394	     23.76344519	   -379.26249603	    -14.13810766	     -6.82166116	      4.98037098	      0.00086804	     -0.03095437	     -0.00484030	      0.01657332	     -0.01815034	     -0.00751859	      0.00462816	     -0.06678931	     -0.00323546	      0.00773433	     -0.18350453	     -0.00038310	     -0.00474524	      0.00136172	      0.00014964	      0.00001753	      0.00000701	      0.00003506	      0.00002244	      0.00006731	      0.00003786	     -0.00001215	     -0.00021219	     -0.00025463	      0.00250589	      0.00879184	      0.00611606	     -0.00819722	      0.01979226	     -0.01877292	      0.00250589	      0.00879184	      0.00611606	      0.00055214	      0.01834819	     -0.00964130	      0.00395867	      0.00488903	      0.01599381	      0.00000000	      0.00781692	      0.00000000	     -0.00717788	     -0.03317115	     -0.00644561	      0.01556980	     -0.00053312	     -0.00449940	     -0.00089193	      0.01495038	     -0.00611606	      0.00246341	      0.02157611	     -0.01783852	     -0.00598865	      0.01295416	     -0.00547897	     -0.01248696	      0.02735240	     -0.03062279	     -0.02344491	      0.01448318	     -0.00734777	     -0.01554500	      0.03159966	     -0.03826787
      1.03333333	     -0.32326503	      0.13691981	     -0.13691981	      0.32326503	     -0.06545459	      0.52898100	      0.23777332	     -0.23777332	     -0.52898100	      0.06545459	     99.16035192	     76.53586953	     -1.73067463	    -22.81609283	     29.22452318	     38.98647082	      0.12474287	     -0.02052216	      0.15655792	     -0.01026108	     33.35328150	     -3.55217179	     -6.53107687	     -5.45259851	    -14.12025288	     11.87545326	     25.10107005	     -8.01295024	    -19.34207777	     -0.69365907	     10.37316545	     14.81736669	    -18.67288260	      0.09601189	     -1.20826499	     24.53720587	   -379.59217875	    -14.14793707	     -6.84487698	      5.00784336	      0.00086666	     -0.03094958	     -0.00483953	      0.01657136	     -0.01813899	     -0.00757752	      0.00466934	     -0.06676268	     -0.00319057	      0.00767835	     -0.18351600	     -0.00037884	     -0.00467837	      0.00133917	      0.00015342	      0.00002065	      0.00000826	      0.00004130	      0.00002643	      0.00007930	      0.00004461	     -0.00001197	     -0.00021582	     -0.00025898	      0.00250868	      0.00880163	      0.00612287	     -0.00820635	      0.01981430	     -0.01879382	      0.00250868	      0.00880163	      0.00612287	      0.00055276	      0.01836862	     -0.00965203	      0.00396188	      0.00489448	      0.01600162	      0.00000000	      0.00783446	      0.00000000	     -0.00718587	     -0.03320809	     -0.00646018	      0.01534827	     -0.00051996	     -0.00433704	     -0.00089292	      0.01496703	     -0.00612287	      0.00246616	      0.02160014	     -0.01785838	     -0.00599531	      0.01296859	     -0.00548508	     -0.01250087	      0.02738286	     -0.03065689	     -0.02347102	      0.01449931	     -0.00735595	     -0.01556231	      0.03163485	     -0.03831049
